<svg  xmlns="http://www.w3.org/2000/svg" xmlns:xlink="http://www.w3.org/1999/xlink" width="1900" height="300" viewBox="0 0 1924 324"><path transform="translate(0 100)" d="M23.8281,-49.6094Q21.0938,-57.0312 19.9219,-63.2812Q22.2656,-62.5 24.2188,-60.5469Q26.9531,-56.25 28.5156,-51.5625Q29.6875,-39.8438 30.4688,-27.3438Q30.4688,-24.6094 28.5156,-23.0469Q27.3438,-24.2188 26.5625,-25.3906Q25,-37.5 23.8281,-49.6094ZM52.7344,-78.5156Q54.2969,-81.25 57.0312,-79.6875Q58.9844,-70.7031 58.5938,-60.1562Q63.6719,-61.3281 69.5312,-62.5Q73.8281,-62.8906 77.3438,-61.3281Q79.6875,-58.9844 78.9062,-55.4688Q75.7812,-50.7812 70.7031,-47.2656Q64.8438,-43.3594 58.9844,-39.4531Q58.5938,-37.5 59.375,-36.3281Q67.9688,-39.0625 75.3906,-41.7969L75.3906,-40.2344Q67.5781,-35.5469 58.9844,-32.4219Q59.7656,-10.5469 58.2031,10.5469L56.6406,10.5469Q53.5156,-9.375 53.9062,-30.0781Q45.7031,-27.3438 36.3281,-26.5625Q34.375,-27.7344 34.7656,-29.6875Q43.75,-37.1094 53.5156,-41.7969Q53.125,-47.6562 53.125,-53.5156Q46.4844,-51.5625 39.4531,-51.9531Q37.1094,-52.7344 35.1562,-53.9062Q43.3594,-57.4219 53.125,-58.5938L52.7344,-78.5156ZM71.0938,-57.8125Q64.8438,-56.25 58.5938,-54.6875Q58.5938,-50 58.9844,-45.3125Q66.4062,-50.3906 73.0469,-56.25Q73.0469,-57.8125 71.0938,-57.8125Z"></path><path transform="translate(100 100)" d="M26.5625,-47.6562Q42.1875,-52.7344 57.4219,-57.8125Q58.5938,-57.4219 59.7656,-56.25Q60.5469,-53.5156 59.7656,-50.3906Q53.9062,-37.1094 46.0938,-24.2188Q59.375,-14.8438 72.6562,-4.6875Q78.5156,0.390625 83.9844,6.64062Q83.9844,8.98438 81.6406,8.59375Q62.5,-5.46875 42.9688,-19.5312Q38.6719,-13.2812 33.9844,-6.64062Q29.6875,-1.5625 24.6094,2.34375Q21.875,4.6875 18.3594,5.46875Q16.4062,2.34375 16.7969,-1.5625Q17.1875,-4.29688 18.75,-6.25Q19.9219,-3.51562 19.9219,1.17188Q24.6094,-2.73438 28.5156,-7.03125Q34.375,-14.8438 38.6719,-22.2656Q31.6406,-27.3438 25,-33.5938Q24.6094,-34.375 25,-35.1562Q33.9844,-32.4219 41.7969,-26.9531Q49.2188,-39.8438 55.4688,-52.7344Q43.75,-48.0469 31.25,-44.1406Q26.1719,-43.75 21.0938,-44.1406Q17.9688,-44.9219 15.625,-46.4844Q20.7031,-47.2656 26.5625,-47.6562ZM25,-78.5156Q25.3906,-79.6875 26.5625,-79.2969Q36.3281,-71.0938 46.4844,-63.6719Q46.875,-62.8906 46.0938,-62.1094Q41.4062,-62.5 37.1094,-64.8438Q32.0312,-68.3594 27.3438,-72.6562Q25.3906,-75.3906 25,-78.5156Z"></path><path transform="translate(200 100)" d="M18.75,-63.2812Q19.5312,-64.4531 21.4844,-64.0625Q22.2656,-63.6719 23.0469,-62.5Q23.4375,-48.8281 23.2422,-33.9844Q23.0469,-19.1406 21.875,-3.125Q21.0938,-2.34375 21.0938,-1.5625Q19.9219,-1.5625 19.9219,-2.34375Q20.3125,-11.7188 18.75,-21.0938Q18.3594,-42.1875 18.75,-63.2812ZM68.3594,-75.7812Q71.0938,-76.1719 73.4375,-75.7812Q76.9531,-74.6094 79.2969,-71.4844Q80.0781,-69.9219 80.8594,-67.9688Q81.6406,-30.8594 80.8594,5.85938Q78.9062,5.85938 76.9531,5.85938Q72.6562,2.34375 70.3125,-1.5625Q66.0156,-9.375 66.4062,-12.8906Q68.3594,-7.8125 71.875,-3.125Q74.2188,-0.78125 77.3438,1.5625Q76.5625,-11.3281 76.5625,-23.8281Q73.8281,-25 71.4844,-26.1719Q66.7969,-30.8594 61.7188,-34.375Q57.8125,-29.6875 54.2969,-23.0469Q50,-18.3594 44.9219,-14.8438Q43.75,-14.8438 43.3594,-16.0156Q47.2656,-18.3594 48.8281,-21.875Q42.9688,-27.7344 36.7188,-31.6406Q33.2031,-25.7812 28.125,-20.7031Q26.1719,-19.9219 25,-21.4844Q27.3438,-23.8281 29.2969,-26.1719Q32.0312,-30.8594 33.9844,-35.9375Q29.2969,-39.4531 26.5625,-43.3594Q27.3438,-44.5312 28.5156,-44.1406Q31.6406,-41.4062 35.9375,-40.625Q38.2812,-48.8281 41.0156,-56.6406Q41.0156,-58.9844 41.0156,-60.5469Q42.1875,-62.1094 43.75,-62.5Q44.5312,-62.1094 45.3125,-61.3281Q45.3125,-58.9844 45.3125,-56.25Q42.5781,-46.0938 39.0625,-37.1094Q45.3125,-31.25 50.7812,-24.2188Q54.6875,-30.0781 57.0312,-35.5469L57.0312,-37.5Q52.7344,-41.4062 48.8281,-46.0938Q49.6094,-46.875 51.1719,-46.4844Q54.6875,-44.9219 58.2031,-42.9688Q60.5469,-51.1719 62.8906,-59.7656L64.4531,-61.3281Q66.0156,-61.7188 67.5781,-60.5469Q65.625,-50.3906 62.5,-40.2344Q67.9688,-35.9375 73.0469,-30.8594Q73.8281,-28.9062 75.7812,-26.5625Q76.1719,-46.4844 75.7812,-68.3594Q74.6094,-70.7031 72.2656,-71.875Q58.9844,-69.9219 46.0938,-67.1875Q35.1562,-66.4062 30.4688,-67.5781Q48.8281,-72.2656 68.3594,-75.7812Z"></path><path transform="translate(300 100)" d="M23.4375,-64.8438Q23.8281,-65.2344 25,-65.2344Q26.5625,-63.2812 28.125,-61.3281L28.125,-55.4688Q26.5625,-46.0938 23.0469,-37.5L21.0938,-37.5Q22.6562,-48.4375 24.2188,-58.9844Q23.8281,-62.1094 23.4375,-64.8438ZM68.75,-69.1406Q72.6562,-69.9219 76.1719,-68.75Q77.7344,-67.9688 78.9062,-66.0156Q78.9062,-62.1094 77.3438,-58.9844Q73.8281,-55.0781 69.9219,-51.5625Q66.7969,-48.8281 63.2812,-46.875Q61.3281,-43.3594 58.2031,-39.4531Q56.25,-38.2812 54.2969,-35.9375Q55.4688,-32.0312 57.8125,-28.5156Q66.7969,-30.4688 76.5625,-31.25Q76.9531,-30.4688 77.7344,-29.2969Q76.9531,-28.9062 76.9531,-28.125Q68.75,-27.3438 60.9375,-25Q60.9375,-22.2656 61.7188,-19.1406Q61.3281,-11.7188 60.1562,-4.6875Q58.2031,0.78125 54.6875,5.46875Q52.7344,5.46875 51.1719,5.07812Q49.2188,3.51562 47.6562,1.95312Q44.9219,-1.95312 43.3594,-6.25Q43.3594,-8.59375 43.3594,-10.5469Q44.5312,-7.42188 47.6562,-3.125Q49.6094,-0.390625 52.7344,0.78125Q55.4688,-6.25 56.6406,-14.8438L56.6406,-23.0469Q45.3125,-21.875 34.375,-18.75Q32.0312,-18.75 30.0781,-19.1406Q28.125,-20.3125 26.9531,-21.4844Q40.2344,-23.8281 53.5156,-27.3438Q54.2969,-28.125 53.9062,-28.5156Q51.1719,-28.5156 49.2188,-30.0781Q48.4375,-32.4219 48.8281,-35.1562Q53.5156,-40.625 57.4219,-46.875Q50.7812,-45.7031 44.1406,-44.1406Q41.7969,-44.9219 39.8438,-45.7031Q39.0625,-46.875 38.6719,-48.0469Q48.8281,-48.8281 58.2031,-51.1719Q60.5469,-51.5625 62.8906,-50.7812Q63.6719,-50.3906 64.4531,-49.2188Q71.0938,-56.6406 74.6094,-64.8438Q73.0469,-65.625 71.0938,-65.2344Q61.7188,-62.5 51.9531,-59.375Q44.1406,-57.8125 35.9375,-57.4219Q32.4219,-58.5938 30.4688,-60.1562Q35.5469,-60.9375 40.625,-60.9375Q47.2656,-62.5 53.9062,-64.0625Q61.3281,-66.7969 68.75,-69.1406ZM38.6719,-78.9062Q47.2656,-75 56.6406,-71.0938L56.6406,-69.9219Q53.125,-68.75 49.2188,-69.5312Q44.1406,-71.0938 40.2344,-75.3906Q39.0625,-77.3438 38.6719,-78.9062Z"></path><path transform="translate(400 100)" d="M12.5,-44.9219Q19.5312,-45.3125 26.9531,-43.75Q29.2969,-42.1875 30.8594,-39.4531Q30.4688,-27.3438 30.4688,-15.2344Q30.8594,-14.8438 31.25,-14.8438Q37.1094,-22.2656 41.0156,-29.6875Q40.2344,-24.6094 38.2812,-20.3125Q33.5938,-12.8906 27.3438,-7.03125Q26.1719,-7.03125 25.7812,-7.42188Q25.3906,-23.4375 26.5625,-39.4531Q21.875,-41.4062 16.4062,-41.4062Q13.6719,-42.5781 12.5,-44.9219ZM21.875,-65.2344Q21.4844,-66.7969 23.0469,-67.5781Q25,-67.5781 27.3438,-67.1875Q29.2969,-66.0156 32.0312,-64.4531Q37.1094,-60.1562 41.4062,-55.8594L39.4531,-55.8594Q30.0781,-60.1562 21.875,-65.2344ZM65.625,-76.1719Q66.4062,-77.3438 67.9688,-76.5625Q68.75,-75.7812 69.1406,-75Q69.5312,-62.1094 70.7031,-49.6094Q76.1719,-50.3906 81.25,-51.9531Q81.6406,-52.3438 82.4219,-53.125Q80.4688,-54.2969 79.2969,-55.4688L82.0312,-55.4688Q85.1562,-54.6875 87.5,-52.3438Q87.5,-50.7812 86.3281,-49.6094Q78.125,-47.6562 70.3125,-44.9219Q71.0938,-23.4375 71.4844,-0.78125Q71.0938,3.125 70.7031,6.25Q71.4844,6.64062 68.75,6.64062Q66.4062,-18.3594 65.2344,-42.5781Q57.8125,-40.2344 50,-38.6719L42.9688,-38.6719Q41.4062,-39.4531 41.0156,-41.0156Q46.4844,-41.7969 51.9531,-42.5781Q58.9844,-44.5312 66.0156,-47.2656Q64.4531,-61.3281 65.625,-76.1719Z"></path><path transform="translate(500 100)" d="M65.625,-51.5625Q66.4062,-53.5156 67.9688,-53.9062Q68.75,-52.7344 69.5312,-51.5625Q70.7031,-44.9219 70.7031,-37.1094Q70.3125,-30.4688 68.3594,-24.6094Q67.1875,-24.6094 66.4062,-25.3906Q65.625,-38.2812 65.625,-51.5625ZM40.625,-66.0156Q41.0156,-66.7969 42.1875,-67.1875Q44.5312,-67.1875 46.4844,-66.4062Q51.9531,-64.4531 57.8125,-60.9375Q57.8125,-60.1562 57.4219,-59.7656Q53.9062,-59.7656 50.7812,-60.1562Q45.3125,-61.7188 41.0156,-64.8438Q40.625,-65.2344 40.625,-66.0156ZM32.4219,-51.1719Q28.5156,-63.6719 25,-75Q26.9531,-75.3906 28.125,-73.4375Q32.0312,-67.1875 35.1562,-59.375Q35.1562,-55.4688 37.1094,-51.9531Q41.0156,-53.125 45.3125,-53.5156Q46.4844,-53.125 46.875,-52.3438Q43.3594,-50 39.0625,-48.0469Q41.0156,-41.0156 44.5312,-33.9844Q48.4375,-40.2344 52.3438,-46.0938Q53.5156,-45.7031 54.2969,-44.1406Q52.3438,-36.3281 46.875,-28.9062Q48.8281,-23.8281 51.1719,-17.5781Q54.6875,-10.5469 58.9844,-3.125Q58.9844,-1.17188 58.9844,1.17188Q58.2031,1.95312 57.4219,1.5625Q50,-10.9375 43.75,-24.2188Q35.5469,-14.4531 25.3906,-6.25Q24.2188,-6.25 23.4375,-7.03125Q25,-12.5 27.3438,-16.7969Q25.7812,-12.1094 25.7812,-8.59375L30.0781,-12.8906Q35.5469,-20.3125 41.0156,-28.9062Q38.2812,-38.6719 33.9844,-47.2656Q25,-43.75 14.8438,-42.1875Q13.2812,-42.9688 13.6719,-44.1406Q22.2656,-48.4375 32.4219,-51.1719ZM81.6406,-77.3438Q82.4219,-78.5156 83.9844,-78.125Q85.1562,-76.5625 85.9375,-74.6094Q86.3281,-34.375 86.7188,6.25Q85.9375,8.20312 83.5938,7.8125Q80.8594,5.85938 78.9062,3.51562Q76.5625,-0 75,-3.125Q74.2188,-5.85938 74.2188,-8.59375Q77.7344,-3.51562 82.0312,1.95312Q82.4219,1.5625 82.8125,1.17188Q82.0312,-23.0469 81.25,-47.2656Q81.6406,-62.1094 81.6406,-77.3438Z"></path><path transform="translate(0 200)" d=""></path><path transform="translate(100 200)" d=""></path><path transform="translate(200 200)" d=""></path><path transform="translate(300 200)" d=""></path><path transform="translate(400 200)" d=""></path><path transform="translate(500 200)" d=""></path><path transform="translate(600 200)" d=""></path><path transform="translate(700 200)" d=""></path><path transform="translate(800 200)" d=""></path><path transform="translate(900 200)" d=""></path><path transform="translate(1000 200)" d=""></path><path transform="translate(1100 200)" d=""></path><path transform="translate(1200 200)" d=""></path><path transform="translate(1300 200)" d=""></path><path transform="translate(1400 200)" d=""></path><path transform="translate(1500 200)" d=""></path><path transform="translate(1600 200)" d=""></path><path transform="translate(1700 200)" d=""></path><path transform="translate(1800 200)" d=""></path></svg>